<?xml version="1.0" encoding="UTF-8" standalone="no"?>
<!DOCTYPE svg PUBLIC "-//W3C//DTD SVG 1.1//EN" "http://www.w3.org/Graphics/SVG/1.1/DTD/svg11.dtd">
<svg width="100%" height="100%" viewBox="0 0 1280 800" version="1.1" xmlns="http://www.w3.org/2000/svg" xmlns:xlink="http://www.w3.org/1999/xlink" xml:space="preserve" xmlns:serif="http://www.serif.com/" style="fill-rule:evenodd;clip-rule:evenodd;stroke-linejoin:round;stroke-miterlimit:1.41421;">
    <g transform="matrix(1,0,0,1.11111,0,-88.8889)">
        <rect x="0" y="80" width="1280" height="720" style="fill:rgb(47,48,58);"/>
    </g>
    <g transform="matrix(1,0,0,-1.12676,2.27374e-13,890.141)">
        <path d="M640,80L1280,790L640,790L640,80Z" style="fill:url(#_Linear1);"/>
    </g>
    <g transform="matrix(1,0,0,1.11111,-1.13687e-13,-88.8889)">
        <path d="M640,80L1280,800L0,800L640,80Z" style="fill:url(#_Linear2);"/>
    </g>
    <g transform="matrix(1.52019,0,0,-1,1.47307e-13,800)">
        <path d="M0,0L421,800L0,800L0,0Z" style="fill:url(#_Linear3);"/>
    </g>
    <g transform="matrix(1.66044e-05,1.90025,-0.799991,6.99035e-06,639.993,-0.00559228)">
        <path d="M421,0L421,800L0,800L421,0Z" style="fill:url(#_Linear4);"/>
    </g>
    <defs>
        <linearGradient id="_Linear1" x1="0" y1="0" x2="1" y2="0" gradientUnits="userSpaceOnUse" gradientTransform="matrix(640,0,0,710,640,435)"><stop offset="0" style="stop-color:rgb(47,48,58);stop-opacity:1"/><stop offset="0.65" style="stop-color:rgb(55,49,66);stop-opacity:1"/><stop offset="0.84" style="stop-color:rgb(76,50,89);stop-opacity:1"/><stop offset="1" style="stop-color:rgb(101,52,116);stop-opacity:1"/></linearGradient>
        <linearGradient id="_Linear2" x1="0" y1="0" x2="1" y2="0" gradientUnits="userSpaceOnUse" gradientTransform="matrix(1280,0,0,720,0,440)"><stop offset="0" style="stop-color:rgb(47,48,58);stop-opacity:1"/><stop offset="0.65" style="stop-color:rgb(55,49,66);stop-opacity:1"/><stop offset="0.84" style="stop-color:rgb(76,50,89);stop-opacity:1"/><stop offset="1" style="stop-color:rgb(101,52,116);stop-opacity:1"/></linearGradient>
        <linearGradient id="_Linear3" x1="0" y1="0" x2="1" y2="0" gradientUnits="userSpaceOnUse" gradientTransform="matrix(421,0,0,800,-1.13687e-13,400)"><stop offset="0" style="stop-color:rgb(47,48,58);stop-opacity:1"/><stop offset="0.65" style="stop-color:rgb(55,49,66);stop-opacity:1"/><stop offset="0.84" style="stop-color:rgb(76,50,89);stop-opacity:1"/><stop offset="1" style="stop-color:rgb(101,52,116);stop-opacity:1"/></linearGradient>
        <linearGradient id="_Linear4" x1="0" y1="0" x2="1" y2="0" gradientUnits="userSpaceOnUse" gradientTransform="matrix(421,0,0,800,-1.13687e-13,400)"><stop offset="0" style="stop-color:rgb(101,52,116);stop-opacity:1"/><stop offset="0.16" style="stop-color:rgb(76,50,89);stop-opacity:1"/><stop offset="0.35" style="stop-color:rgb(55,49,66);stop-opacity:1"/><stop offset="1" style="stop-color:rgb(47,48,58);stop-opacity:1"/></linearGradient>
    </defs>
</svg>
