<?xml version="1.0" encoding="UTF-8" standalone="no"?>
<svg width="24px" height="24px" viewBox="0 0 24 24" version="1.1" xmlns="http://www.w3.org/2000/svg" xmlns:xlink="http://www.w3.org/1999/xlink">
    <!-- Generator: Sketch 39.1 (31720) - http://www.bohemiancoding.com/sketch -->
    <title>GCP Copy 2</title>
    <desc>Created with Sketch.</desc>
    <defs></defs>
    <g id="Page-1" stroke="none" stroke-width="1" fill="none" fill-rule="evenodd">
        <g id="GCP-Copy" transform="translate(0.000000, 1.000000)" fill="#FFFFFF">
            <path d="M14.4829466,10.8406913 C14.4829466,9.47610417 13.4000166,8.36997287 12.0640383,8.36997287 C10.7280015,8.36997287 9.64501305,9.47610417 9.64501305,10.8406913 C9.64501305,12.2052187 10.7280015,13.31135 12.0640383,13.31135 C13.4000166,13.31135 14.4829466,12.2052187 14.4829466,10.8406913" id="Fill-1"></path>
            <path d="M20.9417685,4.87518148 C20.9316882,4.8573409 18.7995228,1.09203722 18.7995228,1.09203722 C18.4070086,0.397748195 17.6950812,0.00926385726 16.9627625,0.00863511466 L7.16583577,0.00863511466 C6.38080736,0.00863511466 5.69550419,0.444117962 5.32884467,1.09156566 L2.57385819,5.96660005 L5.02205108,10.298165 L8.39016306,4.33972855 L20.0233114,4.3403573 C20.3891245,4.34059307 20.7449343,4.53456017 20.9412299,4.88123312 L16.0478451,4.88123312 L19.4119557,10.8325177 L15.7329719,17.3402394 L13.5938811,21.1230693 C13.4106667,21.4465574 13.0683999,21.6642595 12.6762704,21.6645739 L15.1206928,17.3402394 L8.39000916,17.3402394 L5.00204447,11.3459646 L4.71587307,10.8397482 L2.57378124,7.04898044 C2.39195198,6.72667126 2.37810126,6.31720264 2.57124194,5.97123702 L0.430227398,9.75713203 C0.0378670915,10.4514996 0.0644143176,11.2754668 0.429996553,11.9236219 L5.32845993,20.5892668 C5.72097413,21.2835558 6.43297843,21.6719616 7.16522018,21.6727475 L12.6762704,21.6719616 C12.7164375,21.6719616 12.7557582,21.6682677 12.794848,21.6637879 L16.961993,21.6645739 C17.7470214,21.6645739 18.4324785,21.2289338 18.799138,20.5815647 L23.6976014,11.9159198 C24.0900387,11.2216307 24.0634914,10.397585 23.6978323,9.74942993 L20.9417685,4.87518148 Z" id="Fill-2"></path>
        </g>
    </g>
</svg>